<?xml version="1.0" encoding="utf-8"?>
<!-- Generator: Adobe Illustrator 21.1.0, SVG Export Plug-In . SVG Version: 6.00 Build 0)  -->
<svg version="1.1" id="Camada_1" xmlns="http://www.w3.org/2000/svg" xmlns:xlink="http://www.w3.org/1999/xlink" x="0px" y="0px"
	 viewBox="0 0 517.3 166.4" style="enable-background:new 0 0 517.3 166.4;" xml:space="preserve">
<style type="text/css">
	.st0{fill:#84C73E;}
	.st1{fill:#FFFFFF;}
	.st2{fill:#262626;}
	.st3{fill:#E8D03D;}
</style>
<title>logo</title>
<g id="Camada_2">
	<g id="Camada_1-2">
		<g>
			<path class="st0" d="M74.7,145.7c-8.8-19.3-21.9-36.3-38.3-49.6c16.6,11,30.1,26.2,39.1,44l0,0.1c0.6-3.5,1.4-7,2.5-10.4
				c-4-28-25.9-49.9-53.9-54.1c-8.5,38.4,13.4,77,50.8,89.2c-0.8-6.4-0.9-12.9-0.2-19.4L74.7,145.7z"/>
			<g>
				<path class="st0" d="M156.7,75.5c-3.8,0-7.6,0.3-11.4,0.8c-43.5,6.3-73.6,46.6-67.4,90.1c9.5-33,33.6-59.8,65.4-72.8
					c-28.7,17-51.6,42.4-65.4,72.8c45.2-8.1,79.8-45,84.9-90.6C160.8,75.6,158.8,75.5,156.7,75.5z"/>
			</g>
			<path class="st1" d="M75.5,140.2c-0.3,1.8-0.6,3.6-0.8,5.4L75.5,140.2z"/>
		</g>
		<g>
			<path class="st2" d="M118.8,152.8l43.9-14.9V92.3l0.1-0.1c-6.8,24.8-22.4,46.3-43.9,60.4"/>
			<path class="st2" d="M0,30.3v99.2l44.6,21.1v-0.1c-21.2-19.8-29.8-49.7-22.3-77.7c26.1,3.1,47.8,21.4,55.2,46.6l-1.2-52.6L0,30.3
				z"/>
			<path class="st2" d="M79.4,66.8l1.2,55.8c12.8-30.7,42.8-50.7,76.1-50.7c2,0,4,0.1,6,0.2V38.5L79.4,66.8z"/>
			<polygon class="st2" points="160.6,36 84.8,0 1.9,27.9 78,64.1 			"/>
		</g>
		<polygon class="st1" points="79.2,126.3 79.2,126.3 79.2,126.3 		"/>
		<path class="st0" d="M254.2,70.6c-4.9,12.8-24.7,56.5-36.6,59.1c-7.3,1.9-10.2-5.2-11.1-11.5c-1.4-12.6,0.8-30.5,6.2-44.3
			c1.4-3.6,2.9-5.6,3.8-5.5s1,2.1,0.8,5.6c-0.7,15-5.5,32.9,0.6,45.7c13.5-12.8,19.9-35.4,32.4-50.6c2.6-3.3,4.7-4.8,5.3-4.2
			C256.2,65.2,255.4,67.2,254.2,70.6z"/>
		<path class="st0" d="M268,125.2c-3.4,3.6-7.7,5-12.5,5c-19.5,0-2.7-42.2,13.6-42.2c8,0,6.2,9.3,3.8,15.3
			c-2.6,6.3-10.2,14.3-17.5,15.9c0,4.8,6.1,5.9,10.5,3.3c2.3-1.3,3.6-2.4,4.3-2.1S270.4,122.5,268,125.2z M256.6,112
			c13-8.3,10.6-16.6,9.7-15.9C263.3,98.2,258.6,104.1,256.6,112z"/>
		<path class="st0" d="M316.9,107.5c-1.5,0-1.4-3.5-2.8-6.9c-1.4-3.1-4.6-5-9.3-3.9c-8.4,2-14.8,10.4-17.5,18.3
			c-0.7,1.8-1.4,6.8,1.8,6.8c9.7,1.7,16-17.4,23.5-17.4c7.2,0-3.2,29.1-6.6,34.8c-4.9,8.9-13.8,21.1-24.7,22.4
			c-4.7,0.6-8.5-1.9-9.2-6.3c-0.3-1.7,0-2.7,0.9-3.1c1.4-0.7,4.4,2.8,6.2,2.8c12.9,1.4,24.4-26.7,26.5-35.7
			c-5.1,5.1-12.6,11.1-20,10.5c-7.8-0.3-8.7-8.6-6.2-15.8c3.5-10.6,12.8-22.4,25-25.1c7.6-1.5,15,1.5,15.7,9.2
			C320.5,99.3,319.7,107.5,316.9,107.5z"/>
		<path class="st3" d="M362,111.8c-1.4,4.5-1.9,8.8-3.1,13.6c-0.7,2.7-1.3,4.8-2.7,5.5s-3.1-1.1-3.7-4.1c-1-4-0.3-8.9,1-13.4
			c-5.1,0.5-10.2,0.4-15.3-0.2c-3.5-0.3-7.6-1.4-9.2-4.6c-2.4-6.2,5.7-16.4,10.5-22.4c7-9.2,12.6-15.9,14.6-14.8
			c1.1,0.6,0.7,3.4-1,7c-2.4,5.3-20.3,25.8-12,26.8c2.9,0.3,5.8,0.4,8.7,0.3c1.9,0,4,0,5.9,0.1c2-6.7,4.5-13.4,6.8-19.9
			c0.9-3,6.1-14.2,8.5-14.2c3.6,0,0.2,13-0.8,15.4c-2.4,6.5-4.6,13-6.6,19.4c2.4,0.6,4,1.3,3.7,2.5S364.9,111.1,362,111.8z"/>
		<path class="st3" d="M393.2,155.4c-7.3,1.8-11.5-0.6-11.1-2.4c0.3-1.6,4.5-2.3,10.3-4.6c9.2-2.8,18.3-12.8,22.1-27.2
			c-3.6,4.8-11.2,8.7-18.7,8.7c-14.6,0-22.4-9.2-16.6-25c7.2-20.1,16.4-33.7,19.8-33.7s-3.1,15.6-9.4,32.8c-5.1,13.2,2.1,17,9.4,17
			c9.4,0,17.4-10.9,21.1-24.3c1.7-6.2,5.7-25.3,14.7-25.3c4.8,0-1.9,21.9-7,35.5C422.2,121.3,419.8,148.9,393.2,155.4z"/>
		<path class="st3" d="M449.9,131.4c-12.1,0-15.8-10-11.7-23.2c2.3-7,7.4-15.3,14.8-18.9c3.3-1.6,5.8-1.5,6.1-0.3
			c1.3-0.6,1.2-0.8,2.9-0.5c7.7,1.6,9.7,10,9.4,17.8C470.8,117.2,463,131.6,449.9,131.4z M462.4,100.5c-1.3-4-1.9-6.2-4.7-8.2
			c-2.7,3-5.6,5.8-8,9.5c-6.1,8.5-9.5,21.2,2,21.2C461.2,123,464.7,107.5,462.4,100.5z"/>
		<path class="st3" d="M516.5,99.8c-2,10.2-6.1,26-6.1,29.1c0.3,0.8-1.2,1.9-3.2,0.8c-2.6-1.5-1.4-10.1-0.3-15.8
			c-3,8.8-7.9,15.4-17.7,17.3c-12.8,2.4-9.9-17-7.5-25.4c1.1-4.3,2.7-8.4,4.9-12.2c0.7-1.1,4-6.3,5.8-5.2c1,0.8,0.6,2.9-0.1,6.4
			c-0.8,3.3-1.9,7.6-2.9,11.4c-0.7,2.9-4.7,17.4,0.2,17.4c8.8-1,14.7-23.3,17.3-29.5c1.4-4.2,6.1-7.9,9.3-4.4
			C518,92.1,517,96.3,516.5,99.8z"/>
	</g>
</g>
</svg>
