<svg xmlns="http://www.w3.org/2000/svg" viewBox="0 0 517.26 166.36">
  <title>logo</title>
  <g id="Camada_2" data-name="Camada 2">
    <g id="Camada_1-2" data-name="Camada 1">
      <path d="M78,166.36a79.53,79.53,0,0,1,78.74-90.88q3.07,0,6.14.24A103.84,103.84,0,0,1,78,166.36Z" style="fill: #84c73e"/>
      <path d="M24.13,75.72A76.35,76.35,0,0,0,74.95,164.9,82.41,82.41,0,0,1,78,129.8,63.89,63.89,0,0,0,24.13,75.72Z" style="fill: #84c73e"/>
      <path d="M78,166.36a163.47,163.47,0,0,1,65.41-72.81A112.49,112.49,0,0,0,78,166.36Z" style="fill: #fff"/>
      <path d="M74.72,145.7A136.93,136.93,0,0,0,36.44,96.07a115.46,115.46,0,0,1,39.07,44" style="fill: #fff"/>
      <g>
        <path d="M118.8,152.75l43.92-14.88V92.27l.08-.14a105.92,105.92,0,0,1-43.92,60.39" style="fill: #262626"/>
        <path d="M0,30.28v99.19l44.64,21.12v-.15A78.44,78.44,0,0,1,22.37,72.72a65.46,65.46,0,0,1,55.18,46.55L76.4,66.72Z" style="fill: #262626"/>
        <path d="M79.4,66.83l1.22,55.81a82.44,82.44,0,0,1,76.09-50.72q3,0,6,.22V38.5Z" style="fill: #262626"/>
        <polygon points="160.65 36.04 84.83 0 1.92 27.87 77.97 64.14 160.65 36.04" style="fill: #262626"/>
      </g>
      <polygon points="79.2 126.26 79.2 126.26 79.2 126.26 79.2 126.26" style="fill: #fff"/>
      <path d="M254.18,70.61c-4.89,12.81-24.69,56.46-36.57,59.07-7.25,1.85-10.2-5.23-11.12-11.54-1.35-12.64.84-30.51,6.23-44.32,1.43-3.62,2.87-5.56,3.79-5.48s1,2.11.76,5.56c-.67,15-5.48,32.87.59,45.67,13.48-12.81,19.89-35.39,32.36-50.56,2.61-3.29,4.72-4.8,5.31-4.21C256.2,65.21,255.44,67.23,254.18,70.61Z" style="fill: #84c73e"/>
      <path d="M268,125.21c-3.37,3.62-7.67,5-12.47,5C236,130.18,252.83,88,269.09,88c8,0,6.24,9.27,3.79,15.25-2.61,6.32-10.2,14.33-17.53,15.93,0,4.8,6.15,5.9,10.53,3.29,2.28-1.26,3.62-2.44,4.3-2.11S270.44,122.51,268,125.21ZM256.62,112c13-8.34,10.62-16.6,9.69-15.93C263.28,98.24,258.64,104.14,256.62,112Z" style="fill: #84c73e"/>
      <path d="M316.87,107.51c-1.52,0-1.43-3.54-2.78-6.91-1.35-3.12-4.63-5-9.27-3.88-8.43,2-14.83,10.36-17.53,18.29-.67,1.77-1.35,6.83,1.77,6.83,9.69,1.69,16-17.36,23.51-17.36,7.16,0-3.2,29.07-6.57,34.8-4.89,8.93-13.82,21.07-24.69,22.42-4.72.59-8.51-1.94-9.19-6.32-.25-1.69,0-2.7.93-3.12,1.35-.67,4.38,2.78,6.23,2.78,12.89,1.35,24.44-26.71,26.46-35.65-5.14,5.14-12.56,11.12-20,10.45-7.84-.25-8.68-8.6-6.24-15.84,3.54-10.62,12.81-22.42,25-25.11,7.58-1.52,15,1.52,15.67,9.19C320.5,99.26,319.74,107.51,316.87,107.51Z" style="fill: #84c73e"/>
      <path d="M362,111.81c-1.35,4.47-1.85,8.85-3.12,13.57-.67,2.7-1.26,4.8-2.7,5.48s-3.12-1.1-3.71-4.13c-1-4-.25-8.93,1-13.4a71.88,71.88,0,0,1-15.34-.17c-3.45-.25-7.58-1.43-9.18-4.55-2.44-6.24,5.73-16.43,10.45-22.42,7-9.19,12.56-15.93,14.58-14.83,1.1.59.67,3.37-1,7-2.36,5.31-20.31,25.79-12.05,26.8a71.71,71.71,0,0,0,8.68.34c1.94,0,4,0,5.9.08,2-6.74,4.47-13.4,6.83-19.89.93-3,6.07-14.24,8.51-14.24,3.62,0,.17,13-.76,15.42-2.36,6.49-4.63,13-6.57,19.38,2.36.59,4,1.26,3.71,2.53S364.91,111.05,362,111.81Z" style="fill: #e8d03d"/>
      <path d="M393.23,155.38c-7.33,1.77-11.55-.59-11.12-2.44.34-1.6,4.55-2.28,10.28-4.55,9.18-2.78,18.29-12.81,22.08-27.22-3.62,4.8-11.21,8.68-18.71,8.68-14.58,0-22.41-9.19-16.6-25,7.16-20.14,16.35-33.71,19.8-33.71s-3.12,15.59-9.44,32.78c-5.14,13.23,2.11,17,9.35,17,9.35,0,17.44-10.87,21.07-24.35,1.69-6.15,5.73-25.28,14.66-25.28,4.8,0-1.94,21.91-7,35.48C422.21,121.25,419.77,148.89,393.23,155.38Z" style="fill: #e8d03d"/>
      <path d="M449.94,131.36c-12.14,0-15.76-10-11.71-23.17,2.28-7,7.42-15.34,14.75-18.88,3.29-1.6,5.82-1.52,6.15-.25,1.26-.59,1.18-.76,2.87-.51,7.67,1.6,9.69,10,9.44,17.78C470.75,117.2,463,131.61,449.94,131.36Zm12.47-30.84c-1.26-4-1.94-6.15-4.72-8.17-2.69,3-5.56,5.81-8,9.52-6.07,8.51-9.52,21.15,2,21.15C461.23,123,464.69,107.51,462.41,100.52Z" style="fill: #e8d03d"/>
      <path d="M516.51,99.85c-2,10.2-6.07,26-6.07,29.07.25.76-1.18,1.94-3.2.84-2.61-1.52-1.43-10.11-.34-15.76-2.95,8.85-7.92,15.42-17.7,17.27-12.81,2.36-9.86-17-7.5-25.45a48.67,48.67,0,0,1,4.89-12.22c.67-1.1,4-6.32,5.81-5.22,1,.76.59,2.95-.08,6.4-.76,3.29-1.94,7.58-2.87,11.38-.67,2.87-4.72,17.36.17,17.36,8.77-1,14.66-23.26,17.28-29.49,1.43-4.21,6.07-7.92,9.35-4.38C518,92.09,517,96.31,516.51,99.85Z" style="fill: #e8d03d"/>
    </g>
  </g>
</svg>
