<?xml version="1.0" standalone="no"?>
<!DOCTYPE svg PUBLIC "-//W3C//DTD SVG 20010904//EN"
 "http://www.w3.org/TR/2001/REC-SVG-20010904/DTD/svg10.dtd">
<svg version="1.0" xmlns="http://www.w3.org/2000/svg"
 width="167.000000pt" height="167.000000pt" viewBox="0 0 167.000000 167.000000"
 preserveAspectRatio="xMidYMid meet">
<metadata>
Created by potrace 1.11, written by Peter Selinger 2001-2013
</metadata>
<g transform="translate(0.000000,167.000000) scale(0.100000,-0.100000)"
fill="#000000" stroke="none">
<path d="M442 1523 c-221 -75 -401 -138 -398 -140 4 -4 492 -238 674 -323 l82
-39 393 133 c499 170 449 149 401 168 -21 9 -102 46 -179 83 -146 70 -260 124
-433 206 -57 27 -111 49 -120 48 -9 0 -198 -61 -420 -136z"/>
<path d="M20 860 c0 -275 4 -500 9 -500 4 0 73 -31 152 -69 191 -91 262 -125
274 -130 6 -2 -11 20 -36 50 -134 158 -202 339 -200 535 1 69 16 172 26 183
13 12 137 -23 215 -62 123 -60 231 -169 292 -295 l44 -92 -3 228 c-5 312 1
282 -63 314 -74 38 -703 338 -707 338 -2 0 -3 -225 -3 -500z"/>
<path d="M1420 1204 c-118 -40 -304 -104 -412 -141 l-197 -68 4 -145 c3 -80 6
-205 7 -277 1 -73 3 -133 4 -133 1 0 16 27 33 61 135 263 419 439 715 440 l74
0 0 170 c0 93 -3 169 -7 168 -3 0 -103 -34 -221 -75z"/>
<path d="M252 867 c-13 -61 -6 -242 13 -311 67 -251 240 -445 477 -535 l26
-10 -1 87 c-1 96 8 180 24 229 40 124 -111 384 -282 489 -59 35 -161 77 -216
87 -31 6 -32 5 -41 -36z"/>
<path d="M1470 903 c-171 -29 -351 -122 -461 -240 -88 -94 -161 -226 -195
-353 -17 -65 -29 -265 -18 -295 8 -20 47 -13 164 27 318 111 560 365 654 689
13 47 27 106 31 132 l7 47 -78 -1 c-44 -1 -90 -4 -104 -6z"/>
<path d="M1626 678 c-72 -203 -209 -388 -374 -505 -25 -18 -41 -33 -36 -33 5
0 104 32 221 72 l211 72 0 223 c0 123 -1 223 -2 223 -1 0 -10 -24 -20 -52z"/>
</g>
</svg>
